<svg xmlns="http://www.w3.org/2000/svg" viewBox="0 0 1200 630" role="img" aria-labelledby="title desc">
  <title id="title">로또 인사이트</title>
  <desc id="desc">과거 당첨번호 분석과 추천 번호를 제공하는 로또 인사이트 대표 이미지</desc>
  <defs>
    <linearGradient id="bg" x1="0" y1="0" x2="1" y2="1">
      <stop offset="0" stop-color="#041126" />
      <stop offset="1" stop-color="#0e7490" />
    </linearGradient>
    <radialGradient id="glowA" cx="0.2" cy="0.12" r="0.6">
      <stop offset="0" stop-color="#22d3ee" stop-opacity="0.55" />
      <stop offset="1" stop-color="#22d3ee" stop-opacity="0" />
    </radialGradient>
    <radialGradient id="glowB" cx="0.82" cy="0.2" r="0.5">
      <stop offset="0" stop-color="#38bdf8" stop-opacity="0.42" />
      <stop offset="1" stop-color="#38bdf8" stop-opacity="0" />
    </radialGradient>
    <linearGradient id="panel" x1="0" y1="0" x2="1" y2="1">
      <stop offset="0" stop-color="rgba(255,255,255,0.2)" />
      <stop offset="1" stop-color="rgba(255,255,255,0.08)" />
    </linearGradient>
  </defs>
  <rect width="1200" height="630" fill="url(#bg)" />
  <rect width="1200" height="630" fill="url(#glowA)" />
  <rect width="1200" height="630" fill="url(#glowB)" />

  <g opacity="0.3">
    <path d="M0 120H1200M0 210H1200M0 300H1200M0 390H1200M0 480H1200" stroke="#9fbad2" stroke-width="1" />
    <path d="M150 0V630M340 0V630M530 0V630M720 0V630M910 0V630M1100 0V630" stroke="#9fbad2" stroke-width="1" />
  </g>

  <rect x="90" y="90" width="1020" height="450" rx="34" fill="url(#panel)" stroke="rgba(186,230,253,0.4)" />

  <g transform="translate(170,150)">
    <circle cx="120" cy="120" r="84" fill="#f8fbff" />
    <circle cx="120" cy="120" r="84" fill="none" stroke="rgba(6,182,212,0.6)" stroke-width="8" />
    <text x="120" y="145" text-anchor="middle" font-size="96" font-family="Space Grotesk, Nanum Gothic, sans-serif" font-weight="700" fill="#0f172a">L</text>
  </g>

  <text x="370" y="260" fill="#e6f8ff" font-size="74" font-family="Space Grotesk, Nanum Gothic, sans-serif" font-weight="700">
    로또 인사이트
  </text>
  <text x="370" y="332" fill="#b6d9ea" font-size="36" font-family="Nanum Gothic, sans-serif" font-weight="700">
    과거 당첨번호 분석 · 통계 기반 추천 번호
  </text>
  <text x="370" y="390" fill="#d4eaf7" font-size="28" font-family="Nanum Gothic, sans-serif">
    핫 넘버 · 콜드 믹스 · 밸런스 조합을 한 화면에서
  </text>

  <g transform="translate(360,430)">
    <circle cx="0" cy="0" r="28" fill="#f9d648" />
    <circle cx="74" cy="0" r="28" fill="#4aa6ff" />
    <circle cx="148" cy="0" r="28" fill="#ff6b5c" />
    <circle cx="222" cy="0" r="28" fill="#9aa1ab" />
    <circle cx="296" cy="0" r="28" fill="#59c271" />
    <circle cx="370" cy="0" r="28" fill="#f9d648" />
    <text x="0" y="10" text-anchor="middle" fill="#0f172a" font-size="24" font-family="Space Grotesk, sans-serif" font-weight="700">3</text>
    <text x="74" y="10" text-anchor="middle" fill="#0f172a" font-size="24" font-family="Space Grotesk, sans-serif" font-weight="700">8</text>
    <text x="148" y="10" text-anchor="middle" fill="#0f172a" font-size="24" font-family="Space Grotesk, sans-serif" font-weight="700">17</text>
    <text x="222" y="10" text-anchor="middle" fill="#0f172a" font-size="24" font-family="Space Grotesk, sans-serif" font-weight="700">29</text>
    <text x="296" y="10" text-anchor="middle" fill="#0f172a" font-size="24" font-family="Space Grotesk, sans-serif" font-weight="700">34</text>
    <text x="370" y="10" text-anchor="middle" fill="#0f172a" font-size="24" font-family="Space Grotesk, sans-serif" font-weight="700">42</text>
  </g>
</svg>
